<svg width="1993" height="350" viewBox="0 0 1993 350" fill="none" xmlns="http://www.w3.org/2000/svg">
<path d="M335.015 158.116H348.386C358.749 284.475 236.067 381.083 117.731 339.632V325.387V161.459H52.211V97.6108H276.515V112.319H66.2509V146.082H132.773V329.991C237.597 356.876 344.904 277.739 335.015 158.116Z" fill="url(#paint0_linear_227_164)"/>
<path d="M153.499 307.207V133.045H330.138C311.382 62.5866 248.056 13.3713 173.89 13.3713C85.6393 13.3713 11.4284 88.2509 13.4341 177.17C14.972 245.35 56.5566 296.51 107.702 321.247V335.621C46.8624 310.884 2.06175 252.384 0.0627225 177.17C-2.61153 76.5509 80.6251 0 173.89 0C267.155 0 337.021 70.5338 347.049 147.753H333.343H167.873V292.832H189.601V168.479H276.515V183.856H204.31V307.207H153.499Z" fill="url(#paint1_linear_227_164)"/>
<path d="M486.34 245.2C486.34 252.24 481.94 255.76 473.14 255.76C464.487 255.76 460.16 252.24 460.16 245.2V101.54H421.66C416.38 101.54 413.593 97.8 413.3 90.32C413.3 82.9867 416.087 79.32 421.66 79.32H524.84C530.413 79.32 533.053 82.9867 532.76 90.32C532.76 97.8 530.12 101.54 524.84 101.54H486.34V245.2ZM656.264 219.02C656.264 224.887 655.238 230.093 653.184 234.64C651.131 239.187 648.198 242.853 644.384 245.64H644.604C640.938 248.133 637.051 250.187 632.944 251.8C628.838 253.267 624.878 254 621.064 254H585.644C581.978 254 578.018 253.267 573.764 251.8C569.658 250.187 565.771 248.133 562.104 245.64H562.324C558.511 242.853 555.578 239.187 553.524 234.64C551.471 230.093 550.444 224.887 550.444 219.02V130.8C550.444 123.76 554.478 120.24 562.544 120.24C570.611 120.24 574.644 123.76 574.644 130.8V217.26C574.644 221.367 575.671 224.96 577.724 228.04C579.631 231.56 583.591 233.32 589.604 233.32H617.104C622.971 233.32 626.858 231.56 628.764 228.04L628.544 228.26C630.891 224.74 632.064 221.073 632.064 217.26V130.8C632.064 123.76 636.098 120.24 644.164 120.24C652.231 120.24 656.264 123.76 656.264 130.8V219.02ZM707.622 244.76C707.622 251.8 703.589 255.32 695.522 255.32C687.162 255.32 682.982 251.8 682.982 244.76V153.68C682.982 141.653 686.576 133.293 693.762 128.6C700.949 123.907 709.236 121.56 718.622 121.56H743.702C749.129 121.56 751.842 125.007 751.842 131.9C752.136 138.793 749.422 142.24 743.702 142.24H720.382C715.102 142.24 711.656 143.267 710.042 145.32C708.429 147.373 707.622 150.233 707.622 153.9V244.76ZM795.304 244.76C795.304 251.8 791.271 255.32 783.204 255.32C774.991 255.32 770.884 251.8 770.884 244.76V131.24C770.884 124.2 774.991 120.68 783.204 120.68C791.271 120.68 795.304 124.2 795.304 131.24V244.76ZM799.924 92.96C799.924 97.6533 798.311 101.613 795.084 104.84C791.858 108.067 787.898 109.68 783.204 109.68C778.511 109.68 774.478 108.067 771.104 104.84C767.878 101.613 766.264 97.6533 766.264 92.96C766.264 88.12 767.878 84.0867 771.104 80.86C774.478 77.6333 778.511 76.02 783.204 76.02C787.898 76.02 791.858 77.6333 795.084 80.86C798.311 84.0867 799.924 88.12 799.924 92.96ZM850.074 244.76C850.074 251.8 846.041 255.32 837.974 255.32C829.907 255.32 825.874 251.8 825.874 244.76V156.32C825.874 150.307 826.827 145.1 828.734 140.7C830.641 136.3 833.647 132.707 837.754 129.92C845.527 124.347 853.301 121.56 861.074 121.56H896.494C903.974 121.56 911.747 124.347 919.814 129.92C927.734 135.493 931.694 144.293 931.694 156.32V244.76C931.694 251.8 927.661 255.32 919.594 255.32C911.527 255.32 907.494 251.8 907.494 244.76V158.3C907.494 154.487 906.321 150.82 903.974 147.3L904.194 147.52C902.287 144 898.401 142.24 892.534 142.24H865.034C859.021 142.24 855.061 144 853.154 147.52C851.101 150.6 850.074 154.193 850.074 158.3V244.76ZM995.571 238.6C991.758 238.6 987.798 237.94 983.691 236.62C979.731 235.3 975.845 233.393 972.031 230.9C964.111 225.767 960.151 217.113 960.151 204.94V155.22C960.151 149.06 961.178 143.78 963.231 139.38C965.431 134.98 968.365 131.533 972.031 129.04C975.845 126.693 979.731 124.86 983.691 123.54C987.651 122.22 991.538 121.56 995.351 121.56H1032.31C1035.98 121.56 1039.79 122.367 1043.75 123.98C1047.71 125.593 1051.38 127.647 1054.75 130.14C1058.12 132.927 1060.84 136.593 1062.89 141.14C1064.94 145.687 1065.97 150.82 1065.97 156.54V249.82C1065.97 255.98 1064.94 261.187 1062.89 265.44C1060.98 269.84 1058.27 273.507 1054.75 276.44C1051.38 279.227 1047.71 281.353 1043.75 282.82C1039.94 284.433 1036.12 285.24 1032.31 285.24H995.351C987.578 285.24 979.731 282.967 971.811 278.42C967.705 276.073 964.698 273.067 962.791 269.4C961.031 265.733 960.151 261.48 960.151 256.64V254C960.151 251.067 961.105 248.72 963.011 246.96C964.918 245.2 967.925 244.32 972.031 244.32C980.245 245.2 984.351 248.427 984.351 254V256.42C984.351 258.033 985.451 259.793 987.651 261.7C989.998 263.607 993.885 264.56 999.311 264.56H1026.81C1032.24 264.56 1036.05 263.02 1038.25 259.94C1040.6 256.86 1041.77 253.413 1041.77 249.6V156.76C1041.77 153.093 1040.6 149.793 1038.25 146.86C1036.05 143.78 1032.24 142.24 1026.81 142.24H999.311C993.885 142.24 989.998 143.78 987.651 146.86C985.451 149.793 984.351 153.093 984.351 156.76V203.18C984.351 206.847 985.451 210.293 987.651 213.52C989.998 216.6 993.885 218.14 999.311 218.14H1022.19C1027.47 218.14 1030.11 221.513 1030.11 228.26C1030.11 231.34 1029.45 233.833 1028.13 235.74C1026.96 237.647 1024.98 238.6 1022.19 238.6H995.571ZM1189.62 244.76C1189.62 251.8 1185.29 255.32 1176.64 255.32C1167.99 255.32 1163.66 251.8 1163.66 244.76V92.52C1163.66 89.1467 1164.61 86.14 1166.52 83.5C1168.43 80.7133 1172.09 79.32 1177.52 79.32H1252.32C1257.6 79.32 1260.39 82.9867 1260.68 90.32C1260.97 97.8 1258.19 101.54 1252.32 101.54H1189.62V244.76ZM1245.94 163.14C1245.94 165.633 1245.43 168.053 1244.4 170.4C1243.52 172.6 1242.2 174.507 1240.44 176.12C1238.83 177.733 1236.92 179.053 1234.72 180.08C1232.52 180.96 1230.1 181.4 1227.46 181.4C1222.47 181.4 1218.22 179.64 1214.7 176.12C1211.18 172.6 1209.42 168.273 1209.42 163.14C1209.42 158.007 1211.18 153.68 1214.7 150.16C1218.22 146.64 1222.47 144.88 1227.46 144.88C1230.1 144.88 1232.52 145.393 1234.72 146.42C1236.92 147.3 1238.83 148.62 1240.44 150.38C1242.2 151.993 1243.52 153.9 1244.4 156.1C1245.43 158.3 1245.94 160.647 1245.94 163.14ZM1307.49 244.76C1307.49 251.8 1303.46 255.32 1295.39 255.32C1287.18 255.32 1283.07 251.8 1283.07 244.76V131.24C1283.07 124.2 1287.18 120.68 1295.39 120.68C1303.46 120.68 1307.49 124.2 1307.49 131.24V244.76ZM1312.11 92.96C1312.11 97.6533 1310.5 101.613 1307.27 104.84C1304.05 108.067 1300.09 109.68 1295.39 109.68C1290.7 109.68 1286.67 108.067 1283.29 104.84C1280.07 101.613 1278.45 97.6533 1278.45 92.96C1278.45 88.12 1280.07 84.0867 1283.29 80.86C1286.67 77.6333 1290.7 76.02 1295.39 76.02C1300.09 76.02 1304.05 77.6333 1307.27 80.86C1310.5 84.0867 1312.11 88.12 1312.11 92.96ZM1362.26 244.76C1362.26 251.8 1358.23 255.32 1350.16 255.32C1342.09 255.32 1338.06 251.8 1338.06 244.76V156.32C1338.06 150.307 1339.01 145.1 1340.92 140.7C1342.83 136.3 1345.83 132.707 1349.94 129.92C1357.71 124.347 1365.49 121.56 1373.26 121.56H1408.68C1416.16 121.56 1423.93 124.347 1432 129.92C1439.92 135.493 1443.88 144.293 1443.88 156.32V244.76C1443.88 251.8 1439.85 255.32 1431.78 255.32C1423.71 255.32 1419.68 251.8 1419.68 244.76V158.3C1419.68 154.487 1418.51 150.82 1416.16 147.3L1416.38 147.52C1414.47 144 1410.59 142.24 1404.72 142.24H1377.22C1371.21 142.24 1367.25 144 1365.34 147.52C1363.29 150.6 1362.26 154.193 1362.26 158.3V244.76ZM1505.56 254C1501.01 254 1496.69 253.413 1492.58 252.24C1488.47 250.92 1484.51 249.087 1480.7 246.74V246.96C1473.51 242.413 1469.92 234.053 1469.92 221.88V211.1C1469.92 205.087 1470.95 199.88 1473 195.48C1475.2 190.933 1478.21 187.34 1482.02 184.7H1481.8C1485.47 182.207 1489.35 180.373 1493.46 179.2C1497.57 177.88 1501.53 177.22 1505.34 177.22H1553.96V156.76C1553.96 153.093 1552.79 149.793 1550.44 146.86C1548.24 143.78 1544.43 142.24 1539 142.24H1513.26C1507.69 142.24 1503.8 143.633 1501.6 146.42C1499.55 149.06 1498.52 152.213 1498.52 155.88V157.64C1498.52 165.267 1494.41 169.08 1486.2 169.08C1477.99 169.08 1473.88 165.267 1473.88 157.64V155.66C1473.88 149.647 1474.91 144.587 1476.96 140.48C1479.16 136.373 1482.09 132.927 1485.76 130.14H1485.54C1489.35 127.647 1493.31 125.593 1497.42 123.98C1501.67 122.367 1505.71 121.56 1509.52 121.56H1542.96C1546.63 121.56 1550.51 122.367 1554.62 123.98C1558.87 125.593 1562.83 127.647 1566.5 130.14H1566.28C1570.09 132.927 1573.03 136.593 1575.08 141.14C1577.13 145.54 1578.16 150.673 1578.16 156.54V244.76C1578.16 251.8 1574.13 255.32 1566.06 255.32C1564.45 255.32 1562.91 255.247 1561.44 255.1C1560.12 254.953 1558.87 254.587 1557.7 254C1556.67 253.267 1555.79 252.313 1555.06 251.14C1554.47 249.82 1554.18 248.133 1554.18 246.08L1553.96 197.9H1509.52C1506.29 197.9 1503.8 198.267 1502.04 199C1500.28 199.733 1498.89 200.907 1497.86 202.52C1496.69 205.013 1495.81 206.993 1495.22 208.46C1494.78 209.78 1494.56 211.32 1494.56 213.08V221.66C1494.56 225.473 1495.66 228.407 1497.86 230.46C1500.21 232.367 1504.17 233.32 1509.74 233.32H1534.38C1539.81 233.32 1542.52 236.767 1542.52 243.66C1542.52 246.593 1541.86 249.087 1540.54 251.14C1539.22 253.047 1537.17 254 1534.38 254H1505.56ZM1630.82 244.76C1630.82 251.8 1626.78 255.32 1618.72 255.32C1610.65 255.32 1606.62 251.8 1606.62 244.76V156.32C1606.62 150.307 1607.57 145.1 1609.48 140.7C1611.38 136.3 1614.39 132.707 1618.5 129.92C1626.27 124.347 1634.04 121.56 1641.82 121.56H1677.24C1684.72 121.56 1692.49 124.347 1700.56 129.92C1708.48 135.493 1712.44 144.293 1712.44 156.32V244.76C1712.44 251.8 1708.4 255.32 1700.34 255.32C1692.27 255.32 1688.24 251.8 1688.24 244.76V158.3C1688.24 154.487 1687.06 150.82 1684.72 147.3L1684.94 147.52C1683.03 144 1679.14 142.24 1673.28 142.24H1645.78C1639.76 142.24 1635.8 144 1633.9 147.52C1631.84 150.6 1630.82 154.193 1630.82 158.3V244.76ZM1846.71 219.02C1846.71 231.047 1842.75 239.92 1834.83 245.64C1827.06 251.213 1819.29 254 1811.51 254H1774.55C1766.78 254 1759.23 251.213 1751.89 245.64C1748.37 242.707 1745.66 239.04 1743.75 234.64C1741.85 230.093 1740.89 224.887 1740.89 219.02V156.32C1740.89 144.44 1744.56 135.64 1751.89 129.92C1755.56 127.28 1759.3 125.227 1763.11 123.76C1767.07 122.147 1770.89 121.34 1774.55 121.34H1811.51C1815.03 121.34 1818.92 122.073 1823.17 123.54C1827.43 124.86 1831.39 126.693 1835.05 129.04C1838.57 131.533 1841.36 134.98 1843.41 139.38C1845.61 143.78 1846.71 148.987 1846.71 155V166C1846.71 173.04 1842.68 176.56 1834.61 176.56C1826.55 176.56 1822.51 173.04 1822.51 166V156.54C1822.51 152.873 1821.34 149.573 1818.99 146.64C1816.79 143.56 1812.98 142.02 1807.55 142.02H1780.05C1774.63 142.02 1770.74 143.56 1768.39 146.64C1766.19 149.573 1765.09 152.873 1765.09 156.54V218.8C1765.09 222.32 1766.19 225.62 1768.39 228.7C1770.74 231.78 1774.63 233.32 1780.05 233.32H1807.55C1812.98 233.32 1816.79 231.78 1818.99 228.7C1821.34 225.62 1822.51 222.32 1822.51 218.8V208.68C1822.51 201.787 1826.55 198.34 1834.61 198.34C1842.68 198.34 1846.71 201.787 1846.71 208.68V219.02ZM1898.51 218.8C1898.51 222.32 1899.61 225.62 1901.81 228.7C1904.16 231.78 1908.04 233.32 1913.47 233.32H1940.97C1946.4 233.32 1950.21 232 1952.41 229.36C1954.76 226.573 1955.93 223.42 1955.93 219.9V217.48C1955.93 210.587 1959.96 207.14 1968.03 207.14C1976.1 207.14 1980.13 210.587 1980.13 217.48V220.12C1980.13 226.28 1979.1 231.34 1977.05 235.3C1975.14 239.26 1972.21 242.707 1968.25 245.64C1960.48 251.213 1952.7 254 1944.93 254H1907.97C1900.2 254 1892.64 251.213 1885.31 245.64C1881.79 242.707 1879.08 239.04 1877.17 234.64C1875.26 230.093 1874.31 224.887 1874.31 219.02V156.32C1874.31 144.44 1877.98 135.64 1885.31 129.92C1888.98 127.28 1892.72 125.227 1896.53 123.76C1900.49 122.147 1904.3 121.34 1907.97 121.34H1944.93C1948.45 121.34 1952.34 122.073 1956.59 123.54C1960.84 124.86 1964.8 126.693 1968.47 129.04C1971.99 131.533 1974.78 134.98 1976.83 139.38C1979.03 143.78 1980.13 148.987 1980.13 155V184.7C1980.13 188.073 1979.1 191.08 1977.05 193.72C1975.14 196.36 1971.55 197.68 1966.27 197.68H1918.75C1913.47 197.68 1910.68 194.233 1910.39 187.34C1910.39 180.447 1913.18 177 1918.75 177H1956.15L1955.93 156.54C1955.93 152.873 1954.76 149.573 1952.41 146.64C1950.21 143.56 1946.4 142.02 1940.97 142.02H1913.47C1908.04 142.02 1904.16 143.56 1901.81 146.64C1899.61 149.573 1898.51 152.873 1898.51 156.54V218.8Z" fill="white"/>
<defs>
<linearGradient id="paint0_linear_227_164" x1="56.1597" y1="40.7826" x2="308.209" y2="301.19" gradientUnits="userSpaceOnUse">
<stop stop-color="#00E599"/>
<stop offset="1" stop-color="#0090AF"/>
</linearGradient>
<linearGradient id="paint1_linear_227_164" x1="56.1597" y1="40.7826" x2="308.209" y2="301.19" gradientUnits="userSpaceOnUse">
<stop stop-color="#00E599"/>
<stop offset="1" stop-color="#0090AF"/>
</linearGradient>
</defs>
</svg>
