<svg width="349" height="350" viewBox="0 0 349 350" fill="none" xmlns="http://www.w3.org/2000/svg">
<path d="M335.015 158.116H348.386C358.749 284.475 236.067 381.083 117.731 339.632V325.387V161.459H52.211V97.6108H276.515V112.319H66.2509V146.082H132.773V329.991C237.597 356.876 344.904 277.739 335.015 158.116Z" fill="white"/>
<path d="M153.499 307.207V133.045H330.138C311.382 62.5866 248.056 13.3713 173.89 13.3713C85.6393 13.3713 11.4284 88.2509 13.4341 177.17C14.972 245.35 56.5566 296.51 107.702 321.247V335.621C46.8624 310.884 2.06175 252.384 0.0627225 177.17C-2.61153 76.5509 80.6251 0 173.89 0C267.155 0 337.021 70.5338 347.049 147.753H333.343H167.873V292.832H189.601V168.479H276.515V183.856H204.31V307.207H153.499Z" fill="white"/>
</svg>
